# Blender 4.5.3 LTS
# www.blender.org
mtllib Wind.mtl
o Cylinder
v -0.830395 0.014583 -0.557175
v -0.744173 1.014583 1.624349
v -0.657892 0.014583 -0.753112
v -1.139229 1.014583 1.376395
v -0.440555 0.014583 -0.897725
v -1.456648 1.014583 1.034641
v -0.193195 0.014583 -0.981160
v -1.674798 1.014583 0.622378
v 0.067331 0.014583 -0.997731
v -1.778814 1.014583 0.167702
v 0.323268 0.014583 -0.946307
v -1.761607 1.014583 -0.298404
v 0.557175 0.014583 -0.830395
v -1.624349 1.014583 -0.744173
v 0.753112 0.014583 -0.657892
v -1.376395 1.014583 -1.139229
v 0.897725 0.014583 -0.440555
v -1.034641 1.014583 -1.456648
v 0.981160 0.014583 -0.193195
v -0.622378 1.014583 -1.674798
v 0.997731 0.014583 0.067331
v -0.167702 1.014583 -1.778814
v 0.946307 0.014583 0.323268
v 0.298404 1.014583 -1.761607
v 0.830395 0.014583 0.557175
v 0.744173 1.014583 -1.624349
v 0.657892 0.014583 0.753112
v 1.139229 1.014583 -1.376395
v 0.440555 0.014583 0.897725
v 1.456648 1.014583 -1.034641
v 0.193195 0.014583 0.981160
v 1.674798 1.014583 -0.622378
v -0.067331 0.014583 0.997731
v 1.778814 1.014583 -0.167702
v -0.323268 0.014583 0.946307
v 1.761607 1.014583 0.298404
v -0.557175 0.014583 0.830395
v 1.624349 1.014583 0.744173
v -0.753112 0.014583 0.657892
v 1.376395 1.014583 1.139229
v -0.897725 0.014583 0.440555
v 1.034641 1.014583 1.456648
v -0.981160 0.014583 0.193195
v 0.622378 1.014583 1.674798
v -0.997731 0.014583 -0.067331
v 0.167702 1.014583 1.778814
v -0.946307 0.014583 -0.323268
v -0.298404 1.014583 1.761607
v -1.196643 0.264583 0.008781
v -1.175788 0.514583 0.747630
v -0.885990 0.764583 1.320306
v -1.197520 0.764583 1.046006
v -1.329225 0.514583 0.417839
v -1.158141 0.264583 -0.301233
v -1.427442 0.764583 0.700423
v -1.392077 0.514583 0.059571
v -1.040714 0.264583 -0.590717
v -1.560086 0.764583 0.307107
v -1.360061 0.514583 -0.302754
v -0.852363 0.264583 -0.839946
v -1.586413 0.764583 -0.107137
v -1.235360 0.514583 -0.644448
v -0.605926 0.264583 -1.031933
v -1.504628 0.764583 -0.514080
v -1.026471 0.514583 -0.942223
v -0.318196 0.264583 -1.153596
v -1.320306 0.764583 -0.885990
v -0.747629 0.514583 -1.175788
v -0.008781 0.264583 -1.196643
v -1.046006 0.764583 -1.197520
v -0.417839 0.514583 -1.329225
v 0.301233 0.264583 -1.158141
v -0.700423 0.764583 -1.427442
v -0.059572 0.514583 -1.392077
v 0.590717 0.264583 -1.040714
v -0.307107 0.764583 -1.560086
v 0.302755 0.514583 -1.360061
v 0.839946 0.264583 -0.852363
v 0.107137 0.764583 -1.586413
v 0.644448 0.514583 -1.235360
v 1.031933 0.264583 -0.605926
v 0.514080 0.764583 -1.504628
v 0.942223 0.514583 -1.026471
v 1.153596 0.264583 -0.318196
v 0.885990 0.764583 -1.320306
v 1.175788 0.514583 -0.747629
v 1.196643 0.264583 -0.008781
v 1.197520 0.764583 -1.046006
v 1.329225 0.514583 -0.417839
v 1.158141 0.264583 0.301233
v 1.427442 0.764583 -0.700423
v 1.392077 0.514583 -0.059572
v 1.040714 0.264583 0.590717
v 1.560086 0.764583 -0.307107
v 1.360061 0.514583 0.302754
v 0.852363 0.264583 0.839946
v 1.586413 0.764583 0.107137
v 1.235360 0.514583 0.644448
v 0.605926 0.264583 1.031933
v 1.504628 0.764583 0.514080
v 1.026471 0.514583 0.942223
v 0.318196 0.264583 1.153596
v 1.320306 0.764583 0.885990
v 0.747629 0.514583 1.175788
v 0.008781 0.264583 1.196643
v 1.046006 0.764583 1.197520
v 0.417839 0.514583 1.329225
v -0.301233 0.264583 1.158141
v 0.700423 0.764583 1.427442
v 0.059572 0.514583 1.392077
v -0.590717 0.264583 1.040714
v 0.307107 0.764583 1.560086
v -0.302754 0.514583 1.360061
v -0.839946 0.264583 0.852363
v -0.107137 0.764583 1.586413
v -0.644448 0.514583 1.235360
v -1.031933 0.264583 0.605926
v -0.514080 0.764583 1.504628
v -0.942223 0.514583 1.026471
v -1.153596 0.264583 0.318196
vn -0.7230 -0.6335 -0.2756
vn -0.3401 -0.6189 0.7080
vn -0.6270 -0.6335 -0.4533
vn -0.5117 -0.6189 0.5959
vn -0.4883 -0.6335 -0.6002
vn -0.6485 -0.6189 0.4431
vn -0.3163 -0.6335 -0.7061
vn -0.7411 -0.6189 0.2602
vn -0.1228 -0.6335 -0.7639
vn -0.7832 -0.6189 0.0595
vn 0.0791 -0.6335 -0.7697
vn -0.7719 -0.6189 -0.1452
vn 0.2756 -0.6335 -0.7230
vn -0.7080 -0.6189 -0.3401
vn 0.4533 -0.6335 -0.6270
vn -0.5959 -0.6189 -0.5117
vn 0.6002 -0.6335 -0.4883
vn -0.4431 -0.6189 -0.6485
vn 0.7061 -0.6335 -0.3163
vn -0.2602 -0.6189 -0.7411
vn 0.7639 -0.6335 -0.1228
vn -0.0595 -0.6189 -0.7832
vn 0.7697 -0.6335 0.0791
vn 0.1452 -0.6189 -0.7719
vn 0.7230 -0.6335 0.2756
vn 0.3401 -0.6189 -0.7080
vn 0.6270 -0.6335 0.4533
vn 0.5117 -0.6189 -0.5959
vn 0.4883 -0.6335 0.6002
vn 0.6485 -0.6189 -0.4431
vn 0.3163 -0.6335 0.7061
vn 0.7411 -0.6189 -0.2602
vn 0.1228 -0.6335 0.7639
vn 0.7832 -0.6189 -0.0595
vn -0.0791 -0.6335 0.7697
vn 0.7719 -0.6189 0.1452
vn -0.2756 -0.6335 0.7230
vn 0.7080 -0.6189 0.3401
vn -0.4533 -0.6335 0.6270
vn 0.5959 -0.6189 0.5117
vn -0.6002 -0.6335 0.4883
vn 0.4431 -0.6189 0.6485
vn -0.7061 -0.6335 0.3163
vn 0.2602 -0.6189 0.7411
vn -0.7639 -0.6335 0.1228
vn 0.0595 -0.6189 0.7832
vn -0.7697 -0.6335 -0.0791
vn -0.1452 -0.6189 0.7719
vn -0.7683 -0.6399 0.0140
vn -0.6605 -0.6324 0.4048
vn -0.4601 -0.6227 0.6329
vn -0.6083 -0.6227 0.4923
vn -0.7428 -0.6324 0.2200
vn -0.7458 -0.6399 -0.1853
vn -0.7149 -0.6227 0.3180
vn -0.7744 -0.6324 0.0203
vn -0.6724 -0.6399 -0.3720
vn -0.7729 -0.6227 0.1222
vn -0.7533 -0.6324 -0.1808
vn -0.5532 -0.6399 -0.5333
vn -0.7782 -0.6227 -0.0820
vn -0.6808 -0.6324 -0.3696
vn -0.3963 -0.6399 -0.6583
vn -0.7304 -0.6227 -0.2806
vn -0.5619 -0.6324 -0.5332
vn -0.2124 -0.6399 -0.7385
vn -0.6329 -0.6227 -0.4601
vn -0.4048 -0.6324 -0.6605
vn -0.0140 -0.6399 -0.7683
vn -0.4923 -0.6227 -0.6083
vn -0.2200 -0.6324 -0.7428
vn 0.1853 -0.6399 -0.7458
vn -0.3180 -0.6227 -0.7149
vn -0.0203 -0.6324 -0.7744
vn 0.3720 -0.6399 -0.6724
vn -0.1222 -0.6227 -0.7729
vn 0.1808 -0.6324 -0.7533
vn 0.5333 -0.6399 -0.5532
vn 0.0820 -0.6227 -0.7782
vn 0.3696 -0.6324 -0.6808
vn 0.6583 -0.6399 -0.3963
vn 0.2806 -0.6227 -0.7304
vn 0.5332 -0.6324 -0.5619
vn 0.7385 -0.6399 -0.2124
vn 0.4601 -0.6227 -0.6329
vn 0.6605 -0.6324 -0.4048
vn 0.7683 -0.6399 -0.0140
vn 0.6083 -0.6227 -0.4923
vn 0.7428 -0.6324 -0.2200
vn 0.7458 -0.6399 0.1853
vn 0.7149 -0.6227 -0.3180
vn 0.7744 -0.6324 -0.0203
vn 0.6724 -0.6399 0.3720
vn 0.7729 -0.6227 -0.1222
vn 0.7533 -0.6324 0.1808
vn 0.5532 -0.6399 0.5333
vn 0.7782 -0.6227 0.0820
vn 0.6808 -0.6324 0.3696
vn 0.3963 -0.6399 0.6583
vn 0.7304 -0.6227 0.2806
vn 0.5619 -0.6324 0.5332
vn 0.2124 -0.6399 0.7385
vn 0.6329 -0.6227 0.4601
vn 0.4048 -0.6324 0.6605
vn 0.0140 -0.6399 0.7683
vn 0.4923 -0.6227 0.6083
vn 0.2200 -0.6324 0.7428
vn -0.1853 -0.6399 0.7458
vn 0.3180 -0.6227 0.7149
vn 0.0203 -0.6324 0.7744
vn -0.3720 -0.6399 0.6724
vn 0.1222 -0.6227 0.7729
vn -0.1808 -0.6324 0.7533
vn -0.5333 -0.6399 0.5532
vn -0.0820 -0.6227 0.7782
vn -0.3696 -0.6324 0.6808
vn -0.6583 -0.6399 0.3963
vn -0.2806 -0.6227 0.7304
vn -0.5332 -0.6324 0.5619
vn -0.7385 -0.6399 0.2124
vt 1.000000 0.750000
vt 1.000000 1.000000
vt 0.958333 1.000000
vt 0.958333 0.750000
vt 0.916667 1.000000
vt 0.916667 0.750000
vt 0.875000 1.000000
vt 0.875000 0.750000
vt 0.833333 1.000000
vt 0.833333 0.750000
vt 0.791667 1.000000
vt 0.791667 0.750000
vt 0.750000 1.000000
vt 0.750000 0.750000
vt 0.708333 1.000000
vt 0.708333 0.750000
vt 0.666667 1.000000
vt 0.666667 0.750000
vt 0.625000 1.000000
vt 0.625000 0.750000
vt 0.583333 1.000000
vt 0.583333 0.750000
vt 0.541666 1.000000
vt 0.541666 0.750000
vt 0.500000 1.000000
vt 0.500000 0.750000
vt 0.458333 1.000000
vt 0.458333 0.750000
vt 0.416666 1.000000
vt 0.416666 0.750000
vt 0.375000 1.000000
vt 0.375000 0.750000
vt 0.333333 1.000000
vt 0.333333 0.750000
vt 0.291667 1.000000
vt 0.291667 0.750000
vt 0.250000 1.000000
vt 0.250000 0.750000
vt 0.208333 1.000000
vt 0.208333 0.750000
vt 0.166666 1.000000
vt 0.166666 0.750000
vt 0.125000 1.000000
vt 0.125000 0.750000
vt 0.083333 1.000000
vt 0.083333 0.750000
vt 0.041666 1.000000
vt 0.041666 0.750000
vt -0.000000 1.000000
vt -0.000000 0.750000
vt 0.041666 0.000000
vt 0.041666 0.250000
vt -0.000000 0.250000
vt -0.000000 0.000000
vt 0.041666 0.500000
vt -0.000000 0.500000
vt 0.083333 0.000000
vt 0.083333 0.250000
vt 0.083333 0.500000
vt 0.125000 0.000000
vt 0.125000 0.250000
vt 0.125000 0.500000
vt 0.166666 0.000000
vt 0.166666 0.250000
vt 0.166666 0.500000
vt 0.208333 0.000000
vt 0.208333 0.250000
vt 0.208333 0.500000
vt 0.250000 0.000000
vt 0.250000 0.250000
vt 0.250000 0.500000
vt 0.291667 0.000000
vt 0.291667 0.250000
vt 0.291667 0.500000
vt 0.333333 0.000000
vt 0.333333 0.250000
vt 0.333333 0.500000
vt 0.375000 0.000000
vt 0.375000 0.250000
vt 0.375000 0.500000
vt 0.416666 0.000000
vt 0.416666 0.250000
vt 0.416666 0.500000
vt 0.458333 0.000000
vt 0.458333 0.250000
vt 0.458333 0.500000
vt 0.500000 0.000000
vt 0.500000 0.250000
vt 0.500000 0.500000
vt 0.541666 0.000000
vt 0.541666 0.250000
vt 0.541666 0.500000
vt 0.583333 0.000000
vt 0.583333 0.250000
vt 0.583333 0.500000
vt 0.625000 0.000000
vt 0.625000 0.250000
vt 0.625000 0.500000
vt 0.666667 0.000000
vt 0.666667 0.250000
vt 0.666667 0.500000
vt 0.708333 0.000000
vt 0.708333 0.250000
vt 0.708333 0.500000
vt 0.750000 0.000000
vt 0.750000 0.250000
vt 0.750000 0.500000
vt 0.791667 0.000000
vt 0.791667 0.250000
vt 0.791667 0.500000
vt 0.833333 0.000000
vt 0.833333 0.250000
vt 0.833333 0.500000
vt 0.875000 0.000000
vt 0.875000 0.250000
vt 0.875000 0.500000
vt 0.916667 0.000000
vt 0.916667 0.250000
vt 0.916667 0.500000
vt 0.958333 0.000000
vt 0.958333 0.250000
vt 0.958333 0.500000
vt 1.000000 0.000000
vt 1.000000 0.250000
vt 1.000000 0.500000
s 1
f 51/1/51 2/2/2 4/3/4 52/4/52
f 52/4/52 4/3/4 6/5/6 55/6/55
f 55/6/55 6/5/6 8/7/8 58/8/58
f 58/8/58 8/7/8 10/9/10 61/10/61
f 61/10/61 10/9/10 12/11/12 64/12/64
f 64/12/64 12/11/12 14/13/14 67/14/67
f 67/14/67 14/13/14 16/15/16 70/16/70
f 70/16/70 16/15/16 18/17/18 73/18/73
f 73/18/73 18/17/18 20/19/20 76/20/76
f 76/20/76 20/19/20 22/21/22 79/22/79
f 79/22/79 22/21/22 24/23/24 82/24/82
f 82/24/82 24/23/24 26/25/26 85/26/85
f 85/26/85 26/25/26 28/27/28 88/28/88
f 88/28/88 28/27/28 30/29/30 91/30/91
f 91/30/91 30/29/30 32/31/32 94/32/94
f 94/32/94 32/31/32 34/33/34 97/34/97
f 97/34/97 34/33/34 36/35/36 100/36/100
f 100/36/100 36/35/36 38/37/38 103/38/103
f 103/38/103 38/37/38 40/39/40 106/40/106
f 106/40/106 40/39/40 42/41/42 109/42/109
f 109/42/109 42/41/42 44/43/44 112/44/112
f 112/44/112 44/43/44 46/45/46 115/46/115
f 115/46/115 46/45/46 48/47/48 118/48/118
f 118/48/118 48/47/48 2/49/2 51/50/51
f 47/51/47 120/52/120 49/53/49 1/54/1
f 120/52/120 119/55/119 50/56/50 49/53/49
f 119/55/119 118/48/118 51/50/51 50/56/50
f 45/57/45 117/58/117 120/52/120 47/51/47
f 117/58/117 116/59/116 119/55/119 120/52/120
f 116/59/116 115/46/115 118/48/118 119/55/119
f 43/60/43 114/61/114 117/58/117 45/57/45
f 114/61/114 113/62/113 116/59/116 117/58/117
f 113/62/113 112/44/112 115/46/115 116/59/116
f 41/63/41 111/64/111 114/61/114 43/60/43
f 111/64/111 110/65/110 113/62/113 114/61/114
f 110/65/110 109/42/109 112/44/112 113/62/113
f 39/66/39 108/67/108 111/64/111 41/63/41
f 108/67/108 107/68/107 110/65/110 111/64/111
f 107/68/107 106/40/106 109/42/109 110/65/110
f 37/69/37 105/70/105 108/67/108 39/66/39
f 105/70/105 104/71/104 107/68/107 108/67/108
f 104/71/104 103/38/103 106/40/106 107/68/107
f 35/72/35 102/73/102 105/70/105 37/69/37
f 102/73/102 101/74/101 104/71/104 105/70/105
f 101/74/101 100/36/100 103/38/103 104/71/104
f 33/75/33 99/76/99 102/73/102 35/72/35
f 99/76/99 98/77/98 101/74/101 102/73/102
f 98/77/98 97/34/97 100/36/100 101/74/101
f 31/78/31 96/79/96 99/76/99 33/75/33
f 96/79/96 95/80/95 98/77/98 99/76/99
f 95/80/95 94/32/94 97/34/97 98/77/98
f 29/81/29 93/82/93 96/79/96 31/78/31
f 93/82/93 92/83/92 95/80/95 96/79/96
f 92/83/92 91/30/91 94/32/94 95/80/95
f 27/84/27 90/85/90 93/82/93 29/81/29
f 90/85/90 89/86/89 92/83/92 93/82/93
f 89/86/89 88/28/88 91/30/91 92/83/92
f 25/87/25 87/88/87 90/85/90 27/84/27
f 87/88/87 86/89/86 89/86/89 90/85/90
f 86/89/86 85/26/85 88/28/88 89/86/89
f 23/90/23 84/91/84 87/88/87 25/87/25
f 84/91/84 83/92/83 86/89/86 87/88/87
f 83/92/83 82/24/82 85/26/85 86/89/86
f 21/93/21 81/94/81 84/91/84 23/90/23
f 81/94/81 80/95/80 83/92/83 84/91/84
f 80/95/80 79/22/79 82/24/82 83/92/83
f 19/96/19 78/97/78 81/94/81 21/93/21
f 78/97/78 77/98/77 80/95/80 81/94/81
f 77/98/77 76/20/76 79/22/79 80/95/80
f 17/99/17 75/100/75 78/97/78 19/96/19
f 75/100/75 74/101/74 77/98/77 78/97/78
f 74/101/74 73/18/73 76/20/76 77/98/77
f 15/102/15 72/103/72 75/100/75 17/99/17
f 72/103/72 71/104/71 74/101/74 75/100/75
f 71/104/71 70/16/70 73/18/73 74/101/74
f 13/105/13 69/106/69 72/103/72 15/102/15
f 69/106/69 68/107/68 71/104/71 72/103/72
f 68/107/68 67/14/67 70/16/70 71/104/71
f 11/108/11 66/109/66 69/106/69 13/105/13
f 66/109/66 65/110/65 68/107/68 69/106/69
f 65/110/65 64/12/64 67/14/67 68/107/68
f 9/111/9 63/112/63 66/109/66 11/108/11
f 63/112/63 62/113/62 65/110/65 66/109/66
f 62/113/62 61/10/61 64/12/64 65/110/65
f 7/114/7 60/115/60 63/112/63 9/111/9
f 60/115/60 59/116/59 62/113/62 63/112/63
f 59/116/59 58/8/58 61/10/61 62/113/62
f 5/117/5 57/118/57 60/115/60 7/114/7
f 57/118/57 56/119/56 59/116/59 60/115/60
f 56/119/56 55/6/55 58/8/58 59/116/59
f 3/120/3 54/121/54 57/118/57 5/117/5
f 54/121/54 53/122/53 56/119/56 57/118/57
f 53/122/53 52/4/52 55/6/55 56/119/56
f 1/123/1 49/124/49 54/121/54 3/120/3
f 49/124/49 50/125/50 53/122/53 54/121/54
f 50/125/50 51/1/51 52/4/52 53/122/53
